<?xml version="1.0" standalone="no"?>
<!DOCTYPE svg PUBLIC "-//W3C//DTD SVG 20010904//EN"
 "http://www.w3.org/TR/2001/REC-SVG-20010904/DTD/svg10.dtd">
<svg version="1.0" xmlns="http://www.w3.org/2000/svg"
 width="548.000000pt" height="548.000000pt" viewBox="0 0 548.000000 548.000000"
 preserveAspectRatio="xMidYMid meet">
<metadata>
Created by potrace 1.11, written by Peter Selinger 2001-2013
</metadata>
<g transform="translate(0.000000,548.000000) scale(0.100000,-0.100000)"
fill="#000000" stroke="none">
<path d="M245 4350 c29 -142 91 -315 171 -475 171 -342 351 -503 731 -654 213
-84 550 -183 837 -246 89 -19 201 -44 250 -55 100 -23 109 -20 133 40 8 19 37
87 64 152 51 122 57 146 37 153 -741 251 -1325 503 -1731 746 -142 85 -329
220 -407 293 -25 23 -56 51 -69 61 l-23 20 7 -35z"/>
<path d="M5110 4331 c-167 -163 -417 -324 -789 -511 -340 -170 -630 -291
-1074 -449 -122 -44 -230 -83 -239 -86 -27 -10 -23 -32 31 -178 71 -191 68
-187 108 -187 72 0 527 108 773 183 648 199 872 360 1078 772 84 169 188 476
166 493 -5 4 -29 -13 -54 -37z"/>
<path d="M2716 3638 c-75 -207 -124 -336 -175 -454 -124 -294 -242 -576 -291
-700 -80 -200 -192 -423 -239 -476 -25 -28 -59 -53 -86 -64 -25 -9 -45 -20
-45 -24 0 -4 21 -10 46 -14 68 -9 454 -7 454 2 0 5 -34 19 -75 31 -46 15 -88
35 -107 53 -28 26 -30 32 -25 77 7 57 70 230 167 456 37 88 112 273 166 410
121 312 149 375 167 375 17 0 58 -90 175 -386 107 -267 290 -764 310 -840 15
-58 15 -63 -2 -89 -10 -15 -42 -38 -72 -51 -30 -13 -54 -26 -54 -29 0 -3 117
-5 260 -5 144 0 260 4 260 9 0 5 -24 19 -54 31 -62 25 -82 44 -124 120 -58
104 -389 966 -542 1410 -44 127 -73 196 -83 198 -10 2 -20 -12 -31 -40z"/>
<path d="M756 3193 c92 -159 256 -340 388 -428 83 -55 318 -175 343 -175 7 0
21 -4 31 -10 18 -9 161 -42 267 -59 75 -13 351 -32 368 -25 7 2 39 68 71 147
31 78 60 147 62 154 6 12 -75 33 -127 33 -69 0 -415 63 -579 106 -295 76 -603
185 -780 274 -33 16 -62 30 -66 30 -3 0 7 -21 22 -47z"/>
<path d="M4595 3203 c-159 -81 -434 -181 -685 -248 -226 -60 -384 -90 -692
-130 -34 -4 -48 -11 -48 -22 0 -15 74 -217 101 -276 6 -14 18 -28 25 -31 15
-6 221 9 334 24 199 27 428 113 626 235 93 58 280 251 362 373 59 90 71 113
55 112 -5 -1 -39 -17 -78 -37z"/>
<path d="M1410 2409 c0 -17 99 -86 186 -131 110 -57 208 -92 299 -108 118 -21
124 -18 172 80 23 47 41 91 40 97 -1 10 -47 14 -172 17 -160 4 -404 27 -487
46 -21 4 -38 4 -38 -1z"/>
<path d="M3925 2404 c-76 -16 -397 -44 -509 -44 -47 0 -86 -2 -86 -5 0 -3 16
-48 36 -100 l37 -95 36 0 c86 1 216 39 336 100 127 64 226 127 233 148 4 14
-3 14 -83 -4z"/>
<path d="M303 1528 c-17 -40 -54 -131 -83 -203 -64 -160 -88 -206 -118 -221
l-23 -11 23 -7 c29 -7 77 -7 106 0 20 6 21 8 6 19 -16 11 -16 17 -4 59 7 26
22 58 32 71 17 22 27 25 87 25 l68 0 27 -59 c14 -32 26 -73 26 -90 l0 -31 134
0 c73 0 154 3 180 6 44 6 45 8 26 21 -17 12 -20 25 -20 84 l0 69 29 0 c23 0
37 -10 62 -42 18 -24 53 -64 78 -90 l45 -48 81 0 c44 0 90 3 103 6 20 6 21 8
6 18 -14 11 -15 23 -5 104 12 94 18 122 30 122 3 0 22 -30 41 -67 57 -110 94
-173 102 -173 4 0 35 52 68 115 34 63 66 118 72 121 20 12 28 -14 40 -126 l13
-115 52 -3 c29 -2 61 2 70 7 16 9 16 10 -4 11 -32 0 -39 19 -63 175 -27 178
-42 246 -55 248 -5 0 -45 -66 -87 -148 -42 -82 -81 -151 -86 -153 -5 -1 -26
30 -47 70 -105 202 -128 240 -136 225 -5 -8 -23 -100 -39 -204 -17 -104 -37
-194 -44 -201 -10 -11 -19 -11 -34 -3 -30 16 -152 153 -152 170 0 8 12 32 26
52 39 56 42 108 10 146 -32 38 -74 46 -204 37 -75 -6 -92 -9 -74 -17 21 -10
22 -14 22 -184 0 -101 -4 -182 -10 -194 -8 -14 -21 -19 -54 -19 -65 0 -70 8
-186 295 -71 176 -85 205 -99 205 -4 0 -21 -33 -38 -72z m565 -71 c30 -27 30
-94 1 -131 -16 -20 -29 -26 -60 -26 l-39 0 0 89 c0 62 4 91 13 94 20 8 61 -4
85 -26z m-527 -48 c17 -36 28 -66 31 -84 3 -18 -4 -20 -51 -23 -48 -3 -53 -1
-46 15 4 10 14 40 23 66 15 47 29 55 43 26z"/>
<path d="M2264 1586 c-44 -19 -109 -80 -127 -119 -23 -50 -30 -129 -17 -193
10 -49 20 -65 65 -110 65 -65 121 -84 247 -84 102 0 122 7 137 51 22 64 14 73
-27 29 -38 -39 -41 -40 -103 -40 -77 0 -133 23 -173 71 -43 51 -56 90 -56 172
0 103 26 152 100 190 65 34 113 33 187 -4 38 -19 49 -30 51 -51 5 -44 20 -32
24 20 6 61 3 69 -34 76 -57 11 -242 6 -274 -8z"/>
<path d="M3647 1473 c-108 -247 -137 -315 -137 -322 0 -14 -46 -51 -63 -51
-12 0 -17 9 -17 30 0 35 -10 38 -35 10 -13 -15 -31 -20 -66 -20 -68 0 -79 15
-79 106 l0 74 55 0 c40 0 57 -4 61 -15 9 -23 21 -18 28 12 9 35 -5 43 -81 43
l-63 0 0 70 0 70 59 0 c40 0 63 -5 71 -15 18 -21 27 -11 22 25 l-4 30 -122 0
c-120 0 -172 -10 -127 -25 20 -6 21 -12 21 -181 0 -102 -4 -183 -10 -195 -7
-12 -21 -19 -42 -19 -26 0 -45 14 -109 80 -44 44 -79 87 -79 97 0 9 12 34 26
54 39 56 42 108 10 146 -32 38 -74 46 -204 37 -75 -6 -92 -9 -74 -17 22 -10
22 -14 22 -189 0 -162 -2 -180 -19 -197 -19 -19 -19 -19 2 -25 29 -8 101 -8
122 0 14 6 13 8 -5 21 -17 12 -20 25 -20 84 l0 69 29 0 c23 0 37 -10 62 -42
18 -24 53 -64 78 -90 l45 -48 191 1 c167 1 420 13 373 17 -25 3 -23 38 5 87
22 40 23 40 90 43 66 3 67 3 87 -30 11 -18 23 -49 26 -70 6 -36 7 -36 58 -40
82 -6 89 -1 51 35 -23 23 -54 84 -111 219 -44 104 -84 188 -90 188 -6 0 -23
-26 -37 -57z m-768 -9 c27 -22 31 -33 31 -73 0 -62 -25 -91 -80 -91 l-40 0 0
88 c0 49 3 92 7 95 14 15 53 6 82 -19z m802 -105 c40 -81 37 -99 -15 -99 -19
0 -38 5 -41 10 -9 14 26 111 39 107 5 -2 13 -10 17 -18z"/>
<path d="M4452 1511 c-94 -32 -141 -100 -142 -202 0 -72 15 -116 54 -157 41
-45 73 -60 138 -68 169 -20 292 73 293 221 0 78 -9 107 -46 149 -60 69 -190
94 -297 57z m160 -40 c110 -70 131 -235 42 -322 -58 -57 -169 -37 -220 38 -32
48 -49 142 -34 189 18 55 48 94 84 110 47 20 78 17 128 -15z"/>
<path d="M1640 1517 c0 -2 17 -22 38 -44 20 -23 58 -77 85 -121 46 -78 47 -82
47 -161 0 -67 -3 -83 -17 -88 -15 -6 -15 -7 3 -14 26 -10 114 -10 139 1 19 8
19 9 -3 9 -54 2 -56 139 -3 237 45 84 100 155 123 162 30 7 1 22 -45 22 -27 0
-39 -5 -43 -17 -3 -10 -22 -51 -41 -91 -48 -98 -62 -96 -122 21 l-45 87 -58 0
c-32 0 -58 -2 -58 -3z"/>
<path d="M3866 1498 c-12 -45 -8 -52 19 -34 15 10 46 16 85 16 l60 0 0 -175
c0 -159 -2 -177 -19 -194 -19 -19 -19 -19 2 -25 29 -8 96 -7 125 0 l23 7 -23
11 c-23 11 -23 15 -26 194 l-2 182 59 0 c40 0 63 -5 71 -15 17 -20 30 -9 30
26 l0 29 -199 0 c-198 0 -199 0 -205 -22z"/>
<path d="M4897 1513 c-4 -3 2 -12 13 -20 19 -13 20 -26 20 -189 0 -158 -2
-176 -19 -193 -19 -19 -19 -19 2 -25 29 -8 101 -8 122 0 14 6 13 8 -5 21 -17
12 -20 25 -20 84 l0 69 29 0 c23 0 37 -10 62 -42 90 -118 140 -150 206 -133
l26 6 -29 18 c-40 24 -154 150 -154 169 0 9 12 33 26 53 55 79 36 156 -44 179
-41 11 -225 14 -235 3z m211 -56 c29 -27 30 -88 1 -128 -18 -25 -27 -30 -58
-27 l-36 3 -3 84 c-3 92 3 105 48 94 14 -3 35 -15 48 -26z"/>
</g>
</svg>
